<svg width="53" height="53" viewBox="0 0 53 53" fill="none" xmlns="http://www.w3.org/2000/svg">
<path d="M26.5 22.9667V44.1667M26.5 22.9667C26.5 18.0196 26.5 15.546 25.5372 13.6565C24.6903 11.9944 23.339 10.643 21.6769 9.79614C19.7874 8.83337 17.3138 8.83337 12.3667 8.83337H10.1583C8.92156 8.83337 8.30316 8.83337 7.83077 9.07406C7.41525 9.2858 7.07742 9.62363 6.86569 10.0391C6.625 10.5115 6.625 11.1299 6.625 12.3667V36.2167C6.625 37.4536 6.625 38.0719 6.86569 38.5443C7.07742 38.9599 7.41525 39.2976 7.83077 39.5093C8.30316 39.75 8.92156 39.75 10.1583 39.75H16.6656C17.8585 39.75 18.455 39.75 19.0317 39.8529C19.5436 39.9442 20.0431 40.0952 20.5196 40.3034C21.0565 40.5378 21.5528 40.8686 22.5453 41.5304L26.5 44.1667M26.5 22.9667C26.5 18.0196 26.5 15.546 27.4628 13.6565C28.3097 11.9944 29.661 10.643 31.323 9.79614C33.2127 8.83337 35.6862 8.83337 40.6333 8.83337H42.8417C44.0786 8.83337 44.6969 8.83337 45.1692 9.07406C45.5849 9.2858 45.9225 9.62363 46.1343 10.0391C46.375 10.5115 46.375 11.1299 46.375 12.3667V36.2167C46.375 37.4536 46.375 38.0719 46.1343 38.5443C45.9225 38.9599 45.5849 39.2976 45.1692 39.5093C44.6969 39.75 44.0786 39.75 42.8417 39.75H36.3344C35.1414 39.75 34.545 39.75 33.9684 39.8529C33.4562 39.9442 32.9569 40.0952 32.4804 40.3034C31.9435 40.5378 31.4471 40.8686 30.4547 41.5304L26.5 44.1667" stroke="white" stroke-width="4.41667" stroke-linecap="round" stroke-linejoin="round"/>
</svg>
