<svg width="57" height="57" viewBox="0 0 57 57" fill="none" xmlns="http://www.w3.org/2000/svg">
<path d="M26.3839 34.5467C26.125 35.0548 26.125 35.7198 26.125 37.05V41.325C26.125 42.6552 26.125 43.3202 26.3839 43.8283C26.6116 44.2752 26.9748 44.6384 27.4217 44.8661C27.9298 45.125 28.5948 45.125 29.925 45.125H34.2C35.5302 45.125 36.1952 45.125 36.7033 44.8661C37.1502 44.6384 37.5134 44.2752 37.7411 43.8283C38 43.3202 38 42.6552 38 41.325V37.05C38 35.7198 38 35.0548 37.7411 34.5467C37.5134 34.0998 37.1502 33.7366 36.7033 33.5089C36.1952 33.25 35.5302 33.25 34.2 33.25H29.925C28.5948 33.25 27.9298 33.25 27.4217 33.5089C26.9748 33.7366 26.6116 34.0998 26.3839 34.5467ZM26.3839 34.5467L18.3792 22.9761M19 17.8125H38M10.925 23.75H15.2C16.5301 23.75 17.1952 23.75 17.7032 23.4911C18.1501 23.2634 18.5134 22.9001 18.7411 22.4532C19 21.9452 19 21.2801 19 19.95V15.675C19 14.3449 19 13.6798 18.7411 13.1718C18.5134 12.7249 18.1501 12.3616 17.7032 12.1339C17.1952 11.875 16.5301 11.875 15.2 11.875H10.925C9.59488 11.875 8.92981 11.875 8.42177 12.1339C7.97489 12.3616 7.61157 12.7249 7.38385 13.1718C7.125 13.6798 7.125 14.3449 7.125 15.675V19.95C7.125 21.2801 7.125 21.9452 7.38385 22.4532C7.61157 22.9001 7.97489 23.2634 8.42177 23.4911C8.92981 23.75 9.59488 23.75 10.925 23.75ZM41.8 23.75H46.075C47.4052 23.75 48.0702 23.75 48.5783 23.4911C49.0252 23.2634 49.3884 22.9001 49.6161 22.4532C49.875 21.9452 49.875 21.2801 49.875 19.95V15.675C49.875 14.3449 49.875 13.6798 49.6161 13.1718C49.3884 12.7249 49.0252 12.3616 48.5783 12.1339C48.0702 11.875 47.4052 11.875 46.075 11.875H41.8C40.4698 11.875 39.8048 11.875 39.2967 12.1339C38.8498 12.3616 38.4866 12.7249 38.2589 13.1718C38 13.6798 38 14.3449 38 15.675V19.95C38 21.2801 38 21.9452 38.2589 22.4532C38.4866 22.9001 38.8498 23.2634 39.2967 23.4911C39.8048 23.75 40.4698 23.75 41.8 23.75Z" stroke="white" stroke-width="4.75" stroke-linecap="round" stroke-linejoin="round"/>
</svg>
