<svg width="49" height="49" viewBox="0 0 49 49" fill="none" xmlns="http://www.w3.org/2000/svg">
<g clip-path="url(#clip0_26_42)">
<path d="M12.25 4.08337V8.16671H10.2083C7.9625 8.16671 6.125 10.0042 6.125 12.25V40.8334C6.125 43.0792 7.9625 44.9167 10.2083 44.9167H38.7917C41.0375 44.9167 42.875 43.0792 42.875 40.8334V12.25C42.875 10.0042 41.0375 8.16671 38.7917 8.16671H36.75V4.08337H32.6667V8.16671H16.3333V4.08337H12.25ZM10.2083 18.375H38.7917V40.8334H10.2083V18.375Z" fill="white"/>
<path d="M33.4834 24.5L25.3167 33.075L21.4375 29.4L18.9875 31.85L24.0917 36.75L25.3167 38.1792L26.5417 36.75L35.9334 26.95L33.4834 24.5Z" fill="white"/>
</g>
<defs>
<clipPath id="clip0_26_42">
<rect width="49" height="49" fill="white"/>
</clipPath>
</defs>
</svg>
