<svg width="48" height="48" viewBox="0 0 48 48" fill="none" xmlns="http://www.w3.org/2000/svg">
<path d="M44 15.9999H40M40 15.9999H38C34 12.0035 28 7.99948 24 11.9999M40 15.9999V31.9998M24 11.9999L17.9991 18.0032C17.8404 18.1619 17.761 18.2413 17.6972 18.3116C16.31 19.8378 16.3106 22.1684 17.6985 23.694C17.7624 23.7642 17.842 23.8436 18.0006 24.0022C18.1593 24.1608 18.2387 24.2402 18.309 24.304C19.8349 25.6906 22.1648 25.6904 23.6902 24.3032C23.7604 24.2394 23.8398 24.16 23.9984 24.0014L25.9992 22.0006M24 11.9999C20 7.99948 14 12.0036 10 16H8M40 31.9998V37.9998H44M40 31.9998H34.3432M8 16H4M8 16V31.9998M8 31.9998H12L12.7639 33.5278C13.7913 35.5824 16.6217 35.8376 18 33.9998C19.0905 35.0904 19.6358 35.6356 20.224 35.9272C21.343 36.4816 22.657 36.4816 23.776 35.9272C24.3642 35.6356 24.9096 35.0904 26 33.9998L27 34.9998C27.1592 35.159 27.239 35.2388 27.3094 35.303C28.8352 36.6898 31.1648 36.6898 32.6906 35.303C32.761 35.2388 32.8408 35.159 33 34.9998C33.1592 34.8406 33.239 34.761 33.303 34.6904C34.6898 33.1648 34.6898 30.835 33.303 29.3094C33.239 29.2388 33.1592 29.1592 33 28.9998L30 25.9998M8 31.9998V37.9998H4" stroke="white" stroke-width="4" stroke-linecap="round" stroke-linejoin="round"/>
</svg>
