<svg width="47" height="47" viewBox="0 0 47 47" fill="none" xmlns="http://www.w3.org/2000/svg">
<path d="M35.1444 22.3434L14.4534 6.18251C14.3994 6.13995 14.3344 6.11349 14.266 6.10619C14.1975 6.09889 14.1284 6.11103 14.0666 6.14123C14.0048 6.17143 13.9527 6.21845 13.9164 6.2769C13.8801 6.33535 13.861 6.40286 13.8613 6.47167V10.0196C13.8613 10.2445 13.9669 10.4602 14.1413 10.5979L30.6647 23.5L14.1413 36.402C13.9623 36.5397 13.8613 36.7555 13.8613 36.9804V40.5283C13.8613 40.8358 14.2147 41.0057 14.4534 40.8175L35.1444 24.6566C35.3203 24.5195 35.4626 24.344 35.5604 24.1436C35.6583 23.9431 35.7091 23.723 35.7091 23.5C35.7091 23.277 35.6583 23.0569 35.5604 22.8564C35.4626 22.656 35.3203 22.4805 35.1444 22.3434Z" fill="#A9D788"/>
</svg>
